<svg id="レイヤー_1" data-name="レイヤー 1" xmlns="http://www.w3.org/2000/svg" viewBox="0 0 194.21 83.86"><defs><style>.cls-1{fill:#fff;}.cls-2{fill:#231815;}</style></defs><rect class="cls-1" width="194.21" height="83.86"/><path class="cls-2" d="M29,43.91V26.65H40.52v4.68H35.06V33H40v4.42H35.06v1.82h5.6v4.68Z"/><path class="cls-2" d="M43.17,43.91V26.65h6.21V38.31h6v5.6Z"/><path class="cls-2" d="M62,43.91V26.65h7.42q3.92,0,5.72,1.51T76.92,33a5.62,5.62,0,0,1-1.62,4.46q-1.64,1.41-5.17,1.41H68.19v5.09Zm6.24-12.46v2.87h1A2.11,2.11,0,0,0,70.53,34,1.24,1.24,0,0,0,71,32.9a1.3,1.3,0,0,0-.48-1.07,2.14,2.14,0,0,0-1.34-.38Z"/><path class="cls-2" d="M75.84,43.91,82,26.65H88.9l6,17.26H88.27l-.56-2.17H83l-.53,2.17Zm8.23-6.27h2.58l-.53-2c-.26-1-.44-1.75-.53-2.29a14.36,14.36,0,0,1-.18-1.51h-.1a14.36,14.36,0,0,1-.18,1.51c-.09.54-.27,1.3-.53,2.29Z"/><path class="cls-2" d="M95.89,43.91V26.65h7.81a7.91,7.91,0,0,1,5.19,1.5,5.29,5.29,0,0,1,1.79,4.31,4.87,4.87,0,0,1-.9,3,3.47,3.47,0,0,1-2.44,1.39l4.61,7h-7l-3-5.69v5.69ZM102,31.09v3.38h1a2,2,0,0,0,1.36-.43,1.58,1.58,0,0,0,.47-1.24,1.61,1.61,0,0,0-.47-1.26,1.92,1.92,0,0,0-1.36-.45Z"/><path class="cls-2" d="M110.89,43.91l6.16-17.26H124l6,17.26h-6.67l-.56-2.17h-4.68l-.53,2.17Zm8.23-6.27h2.58l-.53-2c-.26-1-.43-1.75-.53-2.29a12,12,0,0,1-.17-1.51h-.11a10.49,10.49,0,0,1-.18,1.51c-.09.54-.27,1.3-.53,2.29Z"/><path class="cls-2" d="M131.07,43.91V26.65h6.3V43.91Z"/><path class="cls-2" d="M139.15,42.44l2-4.84A12.4,12.4,0,0,0,143.51,39a5.11,5.11,0,0,0,2,.43,1.78,1.78,0,0,0,1-.24.74.74,0,0,0,.37-.65c0-.48-.61-.85-1.83-1.1l-.92-.2a5.45,5.45,0,0,1-3-1.67,4.47,4.47,0,0,1-1-3,5.75,5.75,0,0,1,2-4.53,7.65,7.65,0,0,1,5.22-1.74,11.18,11.18,0,0,1,2.93.39,13.51,13.51,0,0,1,2.9,1.18l-1.89,4.51a7.72,7.72,0,0,0-1.8-1A4.67,4.67,0,0,0,147.7,31a1.88,1.88,0,0,0-1,.22.65.65,0,0,0-.35.6q0,.73,2.58,1.29l.63.14a4.9,4.9,0,0,1,2.81,1.64,4.54,4.54,0,0,1,1,3,5.94,5.94,0,0,1-2.07,4.68,7.89,7.89,0,0,1-5.39,1.82,12.39,12.39,0,0,1-3.39-.48A16.24,16.24,0,0,1,139.15,42.44Z"/><path class="cls-2" d="M173.32,35.31a9.18,9.18,0,0,1-.67,3.54,8.72,8.72,0,0,1-2,2.91,8.87,8.87,0,0,1-3,1.94,10.06,10.06,0,0,1-7.22,0,9,9,0,0,1-3-2,8.26,8.26,0,0,1-1.95-2.88,9.31,9.31,0,0,1-.66-3.55,9.47,9.47,0,0,1,.66-3.56,8.26,8.26,0,0,1,1.95-2.88,8.68,8.68,0,0,1,3-1.94,10.17,10.17,0,0,1,7.26,0,9,9,0,0,1,3,1.94,8.6,8.6,0,0,1,1.94,2.9A9.37,9.37,0,0,1,173.32,35.31Zm-9.23,3.26a2.73,2.73,0,0,0,2.11-.89,3.41,3.41,0,0,0,.79-2.37,3.46,3.46,0,0,0-.79-2.38,2.92,2.92,0,0,0-4.22,0,3.49,3.49,0,0,0-.8,2.38,3.42,3.42,0,0,0,.8,2.37A2.71,2.71,0,0,0,164.09,38.57Z"/><path class="cls-2" d="M46.14,53.49v1.4A5.16,5.16,0,0,0,46.2,56q.06.12.36.12h.32v.21l-.85,0-1.14,0v-.21h.24q.28,0,.33-.12a4.5,4.5,0,0,0,.07-1.14v-1.4l-.52,0v-.15l.52-.27v-.46a1.35,1.35,0,0,1,.1-.57,1.81,1.81,0,0,1,.38-.52,3.27,3.27,0,0,1,.6-.53.74.74,0,0,1,.36-.08,1.25,1.25,0,0,1,.31,0c0,.13,0,.23,0,.3s0,.18,0,.31l-.09,0a.69.69,0,0,0-.49-.19.47.47,0,0,0-.43.21,2.3,2.3,0,0,0-.13,1v.48c.39,0,.71,0,1,0l0,0-.06.35-.45,0Z"/><path class="cls-2" d="M48.64,52.84l.09.06a5.41,5.41,0,0,0,0,.59q0,1.07,0,1.56c0,.32,0,.58,0,.81a.38.38,0,0,0,.07.18.51.51,0,0,0,.26.07l.25,0v.21l-1,0-.87,0v-.21l.32,0a.38.38,0,0,0,.22-.06.93.93,0,0,0,0-.35c0-.31,0-.73,0-1.27,0-.38,0-.67,0-.87A.22.22,0,0,0,48,53.4a.44.44,0,0,0-.25,0h-.28v-.21A4.56,4.56,0,0,0,48.1,53,3.37,3.37,0,0,0,48.64,52.84Zm-.29-1.6a.41.41,0,1,1-.29.12A.4.4,0,0,1,48.35,51.24Z"/><path class="cls-2" d="M50.73,53.55l.55-.49a.5.5,0,0,1,.21-.12,1.34,1.34,0,0,1,.48-.08,1.44,1.44,0,0,1,.67.15,1,1,0,0,1,.4.41,1.92,1.92,0,0,1,.13.79l0,1.14a2.51,2.51,0,0,0,.05.68.29.29,0,0,0,.27.12h.26v.21l-.67,0-.59,0c.05-.47.07-1.11.07-1.91a1.86,1.86,0,0,0-.09-.69.66.66,0,0,0-.28-.32.88.88,0,0,0-.49-.13,1,1,0,0,0-.59.18.74.74,0,0,0-.31.39,5.08,5.08,0,0,0,0,.74c0,.44,0,.85,0,1.23a.32.32,0,0,0,.05.21.41.41,0,0,0,.3.09h.26v.21l-1,0-.87,0v-.21h.26c.18,0,.28,0,.31-.13a10.69,10.69,0,0,0,0-1.5c0-.41,0-.74,0-1a.18.18,0,0,0-.06-.16.53.53,0,0,0-.28,0h-.26v-.21c.2,0,.39-.06.55-.1a3.37,3.37,0,0,0,.56-.19h.06s.05,0,.05.08v.63Z"/><path class="cls-2" d="M56.83,53.08V51.76a.52.52,0,0,0,0-.28.32.32,0,0,0-.23-.06h-.32V51.2a4,4,0,0,0,1.21-.26l.06,0c0,.25,0,.54,0,.89v3.44a2.47,2.47,0,0,0,0,.67c0,.07.13.11.3.13l.25,0v.21a7.68,7.68,0,0,0-.78,0l-.46,0c0-.17,0-.4,0-.7-.21.16-.47.38-.79.67a1.94,1.94,0,0,1-.54.1,1.32,1.32,0,0,1-1-.46,1.76,1.76,0,0,1-.41-1.23,1.85,1.85,0,0,1,.16-.82,1.19,1.19,0,0,1,.37-.5,7.71,7.71,0,0,1,.69-.39,1.52,1.52,0,0,1,1.09-.12A2.54,2.54,0,0,1,56.83,53.08Zm0,.62a1.86,1.86,0,0,0-.52-.4,1.25,1.25,0,0,0-.56-.14.94.94,0,0,0-.76.35,1.5,1.5,0,0,0-.29,1A1.61,1.61,0,0,0,55,55.59a1,1,0,0,0,.8.38.92.92,0,0,0,.53-.16,1,1,0,0,0,.36-.42,2.26,2.26,0,0,0,.11-.81Z"/><path class="cls-2" d="M60.31,58.3l.17-.57h.08a.81.81,0,0,0,.2.18A.36.36,0,0,0,61,58a.57.57,0,0,0,.41-.22,6,6,0,0,0,.57-1.21c-.11-.28-.32-.82-.64-1.61L61,54.11l-.27-.64c-.08-.22-.21-.33-.38-.33h-.14v-.21c.25,0,.47,0,.66,0l1.05,0v.21h-.27a.28.28,0,0,0-.2,0,.14.14,0,0,0-.06.11,1.14,1.14,0,0,0,.06.25q.38,1,.87,2.16c.31-.71.59-1.38.83-2a1.51,1.51,0,0,0,.1-.35q0-.12-.24-.15l-.27,0v-.21c.28,0,.54,0,.76,0s.42,0,.63,0v.21H64a.26.26,0,0,0-.17,0,.37.37,0,0,0-.15.13c-.07.13-.3.59-.67,1.41-.1.22-.36.83-.77,1.82s-.58,1.29-.62,1.38a1,1,0,0,1-.37.36.85.85,0,0,1-.47.13l-.22,0A1,1,0,0,1,60.31,58.3Z"/><path class="cls-2" d="M64.5,54.62a1.77,1.77,0,0,1,.88-1.54,2,2,0,0,1,1-.22,1.7,1.7,0,0,1,1.24.45A1.64,1.64,0,0,1,68,54.53a1.79,1.79,0,0,1-.6,1.42,1.88,1.88,0,0,1-1.29.48A1.51,1.51,0,0,1,65,55.94,1.81,1.81,0,0,1,64.5,54.62Zm.68-.26a2.55,2.55,0,0,0,.31,1.28,1,1,0,0,0,.88.53.88.88,0,0,0,.71-.33,1.58,1.58,0,0,0,.27-1,2.7,2.7,0,0,0-.16-.95,1.27,1.27,0,0,0-.42-.58,1,1,0,0,0-1.1,0,.81.81,0,0,0-.34.39A1.67,1.67,0,0,0,65.18,54.36Z"/><path class="cls-2" d="M71.33,56.36l0-.66-.21.24a1.69,1.69,0,0,1-.51.38,1.71,1.71,0,0,1-.64.11,1.11,1.11,0,0,1-.56-.14.79.79,0,0,1-.34-.36,1.64,1.64,0,0,1-.11-.69c0-.16,0-.35,0-.57v-.58a3.56,3.56,0,0,0,0-.68s-.1-.07-.23-.07h-.32v-.2a4.19,4.19,0,0,0,.91-.18l.3-.11s.06,0,.06.09l0,.36c0,.52,0,1,0,1.43a3.7,3.7,0,0,0,0,.84.58.58,0,0,0,.23.31.7.7,0,0,0,.42.12,1,1,0,0,0,.62-.22,1.1,1.1,0,0,0,.36-.44,3.3,3.3,0,0,0,.05-.76,7.26,7.26,0,0,0,0-1.17s-.13-.07-.33-.07h-.28v-.2a6,6,0,0,0,.63-.1,3.51,3.51,0,0,0,.55-.18H72a.05.05,0,0,1,.06.06l0,.34c0,.83-.05,1.55-.05,2.18A1.92,1.92,0,0,0,72,56a.41.41,0,0,0,.35.12h.21v.21l-.77,0A3.71,3.71,0,0,0,71.33,56.36Z"/><path class="cls-2" d="M74.13,53.68a3.08,3.08,0,0,0,.32-.36,1.42,1.42,0,0,1,.37-.37.93.93,0,0,1,.67-.05s.05,0,.05.07v0a4.29,4.29,0,0,0-.06.82h-.17a.61.61,0,0,0-.19-.26.51.51,0,0,0-.28-.08.6.6,0,0,0-.39.15.68.68,0,0,0-.24.4,4.61,4.61,0,0,0-.07,1c0,.34,0,.62,0,.85s0,.14.08.16a.83.83,0,0,0,.4.08h.22v.21l-1,0c-.32,0-.64,0-1,0v-.21l.35,0a.41.41,0,0,0,.23-.07.86.86,0,0,0,.06-.35c0-.35,0-.76,0-1.24a4.22,4.22,0,0,0-.07-1c0-.07-.13-.1-.3-.1h-.3v-.21A4.64,4.64,0,0,0,73.5,53a2,2,0,0,0,.49-.16l.09,0,0,0a.22.22,0,0,1,0,.1Z"/><path class="cls-2" d="M78.94,53.59l.51-.45a1.07,1.07,0,0,1,.32-.22,1.9,1.9,0,0,1,.5-.06,1.41,1.41,0,0,1,1,.39,1.39,1.39,0,0,1,.4,1,2.16,2.16,0,0,1-.09.62,1.67,1.67,0,0,1-.22.5,1.56,1.56,0,0,1-.29.33l-.44.28-.15.11a2.39,2.39,0,0,1-.44.25,1.14,1.14,0,0,1-.39.06,1.48,1.48,0,0,1-.35,0,2.4,2.4,0,0,1-.4-.14v.51c0,.52,0,.89,0,1.1a.26.26,0,0,0,.1.21.59.59,0,0,0,.33.06h.2v.2l-1,0-.89,0v-.2H78q.28,0,.33-.12a7.89,7.89,0,0,0,0-1.27V54.51q0-.59,0-.9a.29.29,0,0,0-.07-.2.46.46,0,0,0-.26,0h-.28v-.22a5.83,5.83,0,0,0,1-.21l.22-.08s.06,0,.06.1v.64Zm0,2a1.69,1.69,0,0,0,.47.37,1.17,1.17,0,0,0,.49.11,1,1,0,0,0,.88-.44,1.71,1.71,0,0,0,.3-1,1.42,1.42,0,0,0-.14-.68,1.09,1.09,0,0,0-.4-.45,1.18,1.18,0,0,0-.58-.16,1.06,1.06,0,0,0-.42.09,1.31,1.31,0,0,0-.37.24.69.69,0,0,0-.19.28,1.81,1.81,0,0,0,0,.52Z"/><path class="cls-2" d="M82.51,53.84v-.49l.4-.23a2.23,2.23,0,0,1,.46-.21,2,2,0,0,1,.43,0,1.34,1.34,0,0,1,.81.22.94.94,0,0,1,.37.57c0,.17,0,.6,0,1.29a7.89,7.89,0,0,0,0,1.08.19.19,0,0,0,.18.1h.29v.24l-.58,0-.54,0v-.64l-.75.57a.66.66,0,0,1-.2.11,1,1,0,0,1-.27,0,1,1,0,0,1-.71-.23.79.79,0,0,1-.25-.62,1.17,1.17,0,0,1,.18-.64,1,1,0,0,1,.49-.4,11.08,11.08,0,0,1,1.51-.34,1.13,1.13,0,0,0-.2-.69.89.89,0,0,0-.71-.28,1.12,1.12,0,0,0-.32,0,.9.9,0,0,0-.28.13l-.2.49Zm1.91.58a4.41,4.41,0,0,0-1.28.4.67.67,0,0,0-.27.59.57.57,0,0,0,.16.43.54.54,0,0,0,.4.16,1,1,0,0,0,.52-.15,2,2,0,0,0,.47-.46v-1Z"/><path class="cls-2" d="M87.07,53.68a3.08,3.08,0,0,0,.32-.36,1.42,1.42,0,0,1,.37-.37.81.81,0,0,1,.37-.09.86.86,0,0,1,.31,0s0,0,0,.07v0a4.29,4.29,0,0,0-.06.82h-.17a.61.61,0,0,0-.19-.26.5.5,0,0,0-.27-.08.6.6,0,0,0-.4.15.68.68,0,0,0-.24.4,5.62,5.62,0,0,0-.06,1,6.81,6.81,0,0,0,0,.85c0,.09,0,.14.07.16a.83.83,0,0,0,.4.08h.22v.21l-1,0c-.32,0-.64,0-1,0v-.21l.35,0a.41.41,0,0,0,.23-.07.86.86,0,0,0,.06-.35c0-.35,0-.76,0-1.24a3.72,3.72,0,0,0-.07-1c0-.07-.13-.1-.3-.1h-.3v-.21a5.12,5.12,0,0,0,.63-.11,2.08,2.08,0,0,0,.48-.16l.09,0,0,0a.19.19,0,0,1,0,.1Z"/><path class="cls-2" d="M89.14,53.84v-.49l.4-.23a2.29,2.29,0,0,1,.47-.21,1.88,1.88,0,0,1,.43,0,1.31,1.31,0,0,1,.8.22.86.86,0,0,1,.37.57,10.09,10.09,0,0,1,0,1.29,7,7,0,0,0,0,1.08c0,.06.08.1.18.1h.28v.24l-.58,0-.54,0V56c0-.1,0-.2,0-.31l-.75.57a.56.56,0,0,1-.2.11.91.91,0,0,1-.27,0,1,1,0,0,1-.71-.23.82.82,0,0,1-.25-.62,1.17,1.17,0,0,1,.18-.64,1.05,1.05,0,0,1,.5-.4,10.8,10.8,0,0,1,1.5-.34,1.07,1.07,0,0,0-.2-.69.87.87,0,0,0-.7-.28,1.15,1.15,0,0,0-.33,0,1,1,0,0,0-.28.13c-.07.17-.13.34-.19.49Zm1.91.58a4.53,4.53,0,0,0-1.28.4.67.67,0,0,0-.27.59.57.57,0,0,0,.16.43.56.56,0,0,0,.4.16,1,1,0,0,0,.52-.15,2,2,0,0,0,.47-.46v-1Z"/><path class="cls-2" d="M95.42,53.08V51.76a.52.52,0,0,0,0-.28s-.11-.06-.23-.06h-.31V51.2a3.89,3.89,0,0,0,1.2-.26l.07,0c0,.25,0,.54,0,.89v3.44a2.47,2.47,0,0,0,0,.67c0,.07.13.11.3.13l.26,0v.21a7.86,7.86,0,0,0-.79,0l-.46,0c0-.17,0-.4,0-.7-.2.16-.47.38-.78.67a2.08,2.08,0,0,1-.55.1,1.35,1.35,0,0,1-1-.46,1.81,1.81,0,0,1-.41-1.23,1.85,1.85,0,0,1,.16-.82,1.12,1.12,0,0,1,.38-.5,6.12,6.12,0,0,1,.68-.39,1.62,1.62,0,0,1,.67-.17,1.6,1.6,0,0,1,.42,0A2.07,2.07,0,0,1,95.42,53.08Zm0,.62a1.86,1.86,0,0,0-.52-.4,1.25,1.25,0,0,0-.56-.14.94.94,0,0,0-.76.35,1.5,1.5,0,0,0-.29,1,1.61,1.61,0,0,0,.33,1.07,1,1,0,0,0,.8.38.9.9,0,0,0,.53-.16,1,1,0,0,0,.36-.42,2.26,2.26,0,0,0,.11-.81Z"/><path class="cls-2" d="M97.38,53.84v-.49l.39-.23a2.55,2.55,0,0,1,.47-.21,2,2,0,0,1,.43,0,1.36,1.36,0,0,1,.81.22.88.88,0,0,1,.36.57,11.46,11.46,0,0,1,.06,1.29,7.89,7.89,0,0,0,0,1.08c0,.06.08.1.18.1h.28v.24l-.57,0-.54,0v-.64l-.75.57a.81.81,0,0,1-.2.11,1,1,0,0,1-.27,0,1,1,0,0,1-.72-.23.81.81,0,0,1-.24-.62,1.16,1.16,0,0,1,.17-.64,1.1,1.1,0,0,1,.5-.4,11.08,11.08,0,0,1,1.51-.34,1.13,1.13,0,0,0-.21-.69.87.87,0,0,0-.7-.28,1.19,1.19,0,0,0-.33,0,1,1,0,0,0-.28.13c-.07.17-.13.34-.19.49Zm1.91.58a4.3,4.3,0,0,0-1.28.4.67.67,0,0,0-.27.59.61.61,0,0,0,.15.43.58.58,0,0,0,.4.16,1,1,0,0,0,.52-.15,1.88,1.88,0,0,0,.48-.46v-1Z"/><path class="cls-2" d="M101.94,52.84l.08.06c0,.18,0,.38,0,.59,0,.71,0,1.23,0,1.56s0,.58,0,.81a.3.3,0,0,0,.07.18.47.47,0,0,0,.26.07l.24,0v.21l-1,0-.86,0v-.21l.31,0c.12,0,.2,0,.22-.06a.86.86,0,0,0,.06-.35c0-.31,0-.73,0-1.27,0-.38,0-.67,0-.87a.22.22,0,0,0-.07-.16.42.42,0,0,0-.25,0h-.27v-.21a4.86,4.86,0,0,0,.65-.12A3.37,3.37,0,0,0,101.94,52.84Zm-.29-1.6a.38.38,0,0,1,.28.12.41.41,0,0,1,0,.58.38.38,0,0,1-.28.12.38.38,0,0,1-.29-.12.41.41,0,0,1,0-.58A.38.38,0,0,1,101.65,51.24Z"/><path class="cls-2" d="M103.27,55.25v.23a.84.84,0,0,0,0,.36,1.08,1.08,0,0,0,.37.22,1.55,1.55,0,0,0,.56.11.91.91,0,0,0,.61-.2.6.6,0,0,0,.24-.48.49.49,0,0,0-.14-.36,1.17,1.17,0,0,0-.53-.21,5.79,5.79,0,0,1-1-.25.76.76,0,0,1-.34-.29.78.78,0,0,1-.12-.44,1,1,0,0,1,.35-.78,1.46,1.46,0,0,1,1-.3,2.56,2.56,0,0,1,1,.2c0,.16,0,.44-.05.82h-.22a1,1,0,0,0-.06-.42.73.73,0,0,0-.31-.24,1,1,0,0,0-.47-.11.77.77,0,0,0-.52.17.53.53,0,0,0-.2.42.42.42,0,0,0,.16.37,2.71,2.71,0,0,0,.86.27,3.15,3.15,0,0,1,.69.19.64.64,0,0,1,.26.28.82.82,0,0,1,.1.42,1,1,0,0,1-.41.84,1.66,1.66,0,0,1-1.12.36,4.28,4.28,0,0,1-1-.14c-.06,0-.1,0-.1-.08v-.05a1.25,1.25,0,0,0,0-.19c0-.23,0-.42,0-.55v-.17Z"/><path class="cls-2" d="M106.76,54.6a1.6,1.6,0,0,0,.37,1.09,1.2,1.2,0,0,0,.91.37,1.47,1.47,0,0,0,.5-.09,1.75,1.75,0,0,0,.49-.25l.07.06-.12.3a2.56,2.56,0,0,1-.62.26,2.37,2.37,0,0,1-.65.09,1.59,1.59,0,0,1-1.19-.47,1.74,1.74,0,0,1-.45-1.26,2.2,2.2,0,0,1,.25-1.05,1.47,1.47,0,0,1,.62-.54,1.75,1.75,0,0,1,.87-.25,1.38,1.38,0,0,1,1,.37,1.43,1.43,0,0,1,.37,1.06v.21a2.6,2.6,0,0,1-.45.07c-.26,0-.62,0-1.07,0Zm0-.27c.37,0,.79,0,1.24,0a4.41,4.41,0,0,0,.52,0v-.2a1.38,1.38,0,0,0-.13-.6.64.64,0,0,0-.27-.3.9.9,0,0,0-.46-.12.79.79,0,0,0-.65.3A1.46,1.46,0,0,0,106.77,54.33Z"/><path class="cls-2" d="M112.64,52.84l.09.06c0,.18,0,.38,0,.59,0,.71,0,1.23,0,1.56s0,.58,0,.81a.3.3,0,0,0,.07.18.51.51,0,0,0,.26.07l.25,0v.21l-1,0-.86,0v-.21l.31,0a.43.43,0,0,0,.23-.06,1.22,1.22,0,0,0,.05-.35c0-.31,0-.73,0-1.27,0-.38,0-.67,0-.87a.22.22,0,0,0-.07-.16.42.42,0,0,0-.25,0h-.27v-.21a4.86,4.86,0,0,0,.65-.12A3.37,3.37,0,0,0,112.64,52.84Zm-.29-1.6a.4.4,0,0,1,.29.12.44.44,0,0,1,0,.58.41.41,0,1,1-.29-.7Z"/><path class="cls-2" d="M114.73,53.55l.55-.49a.47.47,0,0,1,.2-.12,1.34,1.34,0,0,1,.48-.08,1.38,1.38,0,0,1,.67.15,1,1,0,0,1,.41.41,1.94,1.94,0,0,1,.12.79v1.14a2.12,2.12,0,0,0,0,.68.27.27,0,0,0,.26.12h.26v.21l-.66,0-.59,0c0-.47.07-1.11.07-1.91a1.86,1.86,0,0,0-.09-.69.69.69,0,0,0-.29-.32.82.82,0,0,0-.48-.13,1,1,0,0,0-.6.18.77.77,0,0,0-.3.39,5.08,5.08,0,0,0,0,.74c0,.44,0,.85,0,1.23a.32.32,0,0,0,0,.21.41.41,0,0,0,.3.09h.25v.21l-1,0-.88,0v-.21h.27c.17,0,.28,0,.31-.13a11.82,11.82,0,0,0,0-1.5c0-.41,0-.74,0-1,0-.08,0-.13-.06-.16a.53.53,0,0,0-.28,0h-.27v-.21c.21,0,.4-.06.56-.1a3.29,3.29,0,0,0,.55-.19h.06s.06,0,.06.08v.63Z"/><path class="cls-2" d="M118.29,55.25v.23a.84.84,0,0,0,0,.36.91.91,0,0,0,.37.22,1.55,1.55,0,0,0,.56.11.93.93,0,0,0,.61-.2.62.62,0,0,0,.23-.48.45.45,0,0,0-.14-.36,1.12,1.12,0,0,0-.52-.21,5.5,5.5,0,0,1-1-.25.75.75,0,0,1-.47-.73,1,1,0,0,1,.35-.78,1.51,1.51,0,0,1,1-.3,2.63,2.63,0,0,1,1,.2c0,.16,0,.44,0,.82h-.22a1.1,1.1,0,0,0-.07-.42.69.69,0,0,0-.3-.24,1.12,1.12,0,0,0-.47-.11.8.8,0,0,0-.53.17.52.52,0,0,0-.19.42.44.44,0,0,0,.15.37,2.81,2.81,0,0,0,.86.27,3,3,0,0,1,.69.19.73.73,0,0,1,.27.28.82.82,0,0,1,.1.42,1.05,1.05,0,0,1-.42.84,1.65,1.65,0,0,1-1.11.36,4.28,4.28,0,0,1-1-.14c-.07,0-.1,0-.1-.08v-.05a.71.71,0,0,0,0-.19,4.39,4.39,0,0,0,0-.55v-.17Z"/><path class="cls-2" d="M122.25,52.84l.09.06a5.41,5.41,0,0,0,0,.59q0,1.07,0,1.56c0,.32,0,.58,0,.81a.38.38,0,0,0,.07.18.51.51,0,0,0,.26.07l.25,0v.21l-1,0-.87,0v-.21l.32,0a.38.38,0,0,0,.22-.06.93.93,0,0,0,.05-.35c0-.31,0-.73,0-1.27,0-.38,0-.67,0-.87a.22.22,0,0,0-.06-.16.44.44,0,0,0-.25,0h-.28v-.21a4.86,4.86,0,0,0,.65-.12A3.37,3.37,0,0,0,122.25,52.84Zm-.29-1.6a.41.41,0,1,1-.29.12A.4.4,0,0,1,122,51.24Z"/><path class="cls-2" d="M126.12,53.08V51.76c0-.15,0-.24-.05-.28s-.11-.06-.23-.06h-.31V51.2a3.89,3.89,0,0,0,1.2-.26l.07,0c0,.25,0,.54,0,.89l0,1v2.47a3.06,3.06,0,0,0,0,.67c0,.07.14.11.3.13l.26,0v.21a7.86,7.86,0,0,0-.79,0l-.46,0c0-.17,0-.4,0-.7-.2.16-.46.38-.78.67a2.08,2.08,0,0,1-.54.1,1.36,1.36,0,0,1-1-.46,1.81,1.81,0,0,1-.41-1.23,1.85,1.85,0,0,1,.16-.82,1.2,1.2,0,0,1,.38-.5,7.71,7.71,0,0,1,.69-.39,1.61,1.61,0,0,1,.66-.17,1.51,1.51,0,0,1,.42,0A2.07,2.07,0,0,1,126.12,53.08Zm0,.62a1.73,1.73,0,0,0-.52-.4,1.19,1.19,0,0,0-.56-.14,1,1,0,0,0-.76.35,1.56,1.56,0,0,0-.29,1,1.61,1.61,0,0,0,.33,1.07,1,1,0,0,0,.81.38.92.92,0,0,0,.53-.16,1,1,0,0,0,.35-.42,2.06,2.06,0,0,0,.11-.81Z"/><path class="cls-2" d="M128.46,54.6a1.56,1.56,0,0,0,.37,1.09,1.2,1.2,0,0,0,.91.37,1.47,1.47,0,0,0,.5-.09,1.89,1.89,0,0,0,.49-.25l.07.06-.12.3a2.56,2.56,0,0,1-.62.26,2.37,2.37,0,0,1-.65.09,1.59,1.59,0,0,1-1.19-.47,1.74,1.74,0,0,1-.45-1.26,2.09,2.09,0,0,1,.25-1.05,1.47,1.47,0,0,1,.62-.54,1.75,1.75,0,0,1,.87-.25,1.38,1.38,0,0,1,1,.37,1.43,1.43,0,0,1,.37,1.06v.21a2.6,2.6,0,0,1-.45.07q-.39,0-1.08,0Zm0-.27c.37,0,.78,0,1.24,0a4.41,4.41,0,0,0,.52,0v-.2a1.38,1.38,0,0,0-.13-.6.64.64,0,0,0-.27-.3.9.9,0,0,0-.46-.12.79.79,0,0,0-.65.3A1.46,1.46,0,0,0,128.47,54.33Z"/><path class="cls-2" d="M133.23,54.62a1.7,1.7,0,0,1,.23-.9,1.67,1.67,0,0,1,.65-.64,2,2,0,0,1,.95-.22,1.69,1.69,0,0,1,1.23.45,1.64,1.64,0,0,1,.47,1.22,1.79,1.79,0,0,1-.61,1.42,1.88,1.88,0,0,1-1.29.48,1.53,1.53,0,0,1-1.18-.49A1.85,1.85,0,0,1,133.23,54.62Zm.68-.26a2.55,2.55,0,0,0,.3,1.28,1,1,0,0,0,.88.53.86.86,0,0,0,.71-.33,1.58,1.58,0,0,0,.27-1,2.49,2.49,0,0,0-.16-.95,1.14,1.14,0,0,0-.42-.58.94.94,0,0,0-.58-.19,1,1,0,0,0-.52.15.79.79,0,0,0-.33.39A1.67,1.67,0,0,0,133.91,54.36Z"/><path class="cls-2" d="M138.35,53.49v1.4a5.16,5.16,0,0,0,.06,1.14c0,.08.16.12.37.12h.31v.21l-.85,0-1.14,0v-.21h.24q.28,0,.33-.12a4.5,4.5,0,0,0,.07-1.14v-1.4l-.52,0v-.15l.52-.27v-.46a1.35,1.35,0,0,1,.1-.57,1.81,1.81,0,0,1,.38-.52,3.27,3.27,0,0,1,.6-.53.74.74,0,0,1,.36-.08,1.2,1.2,0,0,1,.31,0c0,.13,0,.23,0,.3s0,.18,0,.31l-.09,0a.69.69,0,0,0-.49-.19.47.47,0,0,0-.43.21,2.3,2.3,0,0,0-.13,1v.48c.39,0,.71,0,1,0l0,0-.06.35-.45,0Z"/><path class="cls-2" d="M141.52,58.3l.17-.57h.09a.79.79,0,0,0,.19.18.39.39,0,0,0,.2.06.55.55,0,0,0,.41-.22,6,6,0,0,0,.57-1.21c-.11-.28-.32-.82-.64-1.61l-.33-.82-.28-.64c-.08-.22-.21-.33-.38-.33h-.14v-.21c.25,0,.47,0,.66,0l1.05,0v.21h-.27a.28.28,0,0,0-.2,0,.14.14,0,0,0-.06.11.87.87,0,0,0,.07.25c.24.67.53,1.39.86,2.16.32-.71.59-1.38.83-2a1.83,1.83,0,0,0,.11-.35c0-.08-.09-.13-.25-.15l-.27,0v-.21c.29,0,.54,0,.76,0s.42,0,.63,0v.21h-.12a.28.28,0,0,0-.17,0,.29.29,0,0,0-.14.13c-.08.13-.3.59-.67,1.41-.11.22-.36.83-.78,1.82s-.57,1.29-.62,1.38a1,1,0,0,1-.36.36.91.91,0,0,1-.48.13l-.22,0Z"/><path class="cls-2" d="M145.72,54.62a1.7,1.7,0,0,1,.23-.9,1.67,1.67,0,0,1,.65-.64,2,2,0,0,1,1-.22,1.69,1.69,0,0,1,1.23.45,1.64,1.64,0,0,1,.46,1.22,1.79,1.79,0,0,1-.6,1.42,1.88,1.88,0,0,1-1.29.48,1.53,1.53,0,0,1-1.18-.49A1.85,1.85,0,0,1,145.72,54.62Zm.68-.26a2.55,2.55,0,0,0,.3,1.28,1,1,0,0,0,.88.53.86.86,0,0,0,.71-.33,1.58,1.58,0,0,0,.27-1,2.49,2.49,0,0,0-.16-.95,1.14,1.14,0,0,0-.42-.58.94.94,0,0,0-.58-.19,1,1,0,0,0-.52.15.87.87,0,0,0-.34.39A1.83,1.83,0,0,0,146.4,54.36Z"/><path class="cls-2" d="M152.54,56.36l0-.66-.21.24a1.38,1.38,0,0,1-1.15.49,1.13,1.13,0,0,1-.56-.14.84.84,0,0,1-.34-.36,1.64,1.64,0,0,1-.11-.69c0-.16,0-.35,0-.57v-.58a3.11,3.11,0,0,0,0-.68s-.1-.07-.23-.07h-.32v-.2a4.19,4.19,0,0,0,.91-.18l.3-.11s.06,0,.06.09l0,.36c0,.52-.05,1-.05,1.43a4.45,4.45,0,0,0,.05.84.58.58,0,0,0,.23.31.74.74,0,0,0,.42.12,1.14,1.14,0,0,0,1-.66,2.78,2.78,0,0,0,.05-.76,7.26,7.26,0,0,0,0-1.17s-.13-.07-.32-.07h-.29v-.2a6,6,0,0,0,.63-.1,3.2,3.2,0,0,0,.55-.18h.07a.05.05,0,0,1,.06.06v.34c0,.83-.06,1.55-.06,2.18a1.52,1.52,0,0,0,.06.6c.05.08.16.12.34.12h.21v.21l-.77,0Z"/></svg>