<?xml version="1.0" standalone="no"?>
<!DOCTYPE svg PUBLIC "-//W3C//DTD SVG 20010904//EN"
 "http://www.w3.org/TR/2001/REC-SVG-20010904/DTD/svg10.dtd">
<svg version="1.0" xmlns="http://www.w3.org/2000/svg"
 width="881.000000pt" height="421.000000pt" viewBox="0 0 881.000000 421.000000"
 preserveAspectRatio="xMidYMid meet">

<g transform="translate(0.000000,421.000000) scale(0.100000,-0.100000)"
fill="#000000" stroke="none">
<path d="M6390 2747 c-169 -48 -251 -229 -164 -360 25 -38 107 -87 146 -87 10
0 36 -7 58 -16 46 -19 54 -48 16 -65 -33 -15 -83 -5 -150 31 -31 17 -57 30
-60 30 -9 0 -77 -183 -72 -195 7 -20 133 -65 205 -74 202 -25 353 67 375 229
16 123 -44 201 -184 235 -86 21 -121 45 -101 69 20 24 89 20 147 -9 26 -13 51
-21 55 -17 3 4 21 44 39 90 39 94 41 88 -50 123 -68 26 -197 34 -260 16z"/>
<path d="M7090 2747 c-116 -34 -194 -96 -242 -195 -31 -63 -33 -73 -33 -172 1
-127 18 -173 96 -255 142 -150 387 -159 546 -21 27 23 56 65 80 113 35 70 37
82 37 162 -1 122 -28 187 -108 267 -45 44 -78 67 -121 83 -73 28 -192 36 -255
18z m160 -243 c39 -24 60 -65 60 -119 0 -87 -43 -135 -121 -135 -39 0 -53 5
-78 30 -106 107 13 298 139 224z"/>
<path d="M1560 2380 l0 -360 245 0 245 0 0 100 0 100 -115 0 -115 0 0 35 0 35
100 0 100 0 0 95 0 95 -100 0 -100 0 0 35 0 35 110 0 110 0 0 95 0 95 -240 0
-240 0 0 -360z"/>
<path d="M2152 2383 l3 -358 253 -3 252 -2 0 120 0 120 -125 0 -125 0 0 240 0
240 -130 0 -130 0 2 -357z"/>
<path d="M2940 2381 l0 -362 128 3 127 3 3 106 3 107 102 4 c114 5 164 23 210
77 71 85 58 282 -25 358 -55 50 -88 57 -325 61 l-223 4 0 -361z m354 143 c20
-19 21 -68 1 -84 -8 -6 -32 -14 -55 -17 l-40 -6 0 62 0 61 39 0 c23 0 46 -7
55 -16z"/>
<path d="M3765 2728 c-165 -464 -245 -692 -245 -700 0 -5 60 -7 137 -6 l137 3
9 43 8 42 99 0 100 0 11 -45 11 -45 139 0 c77 0 139 1 139 3 0 2 -56 162 -124
357 l-124 355 -146 3 c-112 2 -147 0 -151 -10z m176 -350 c10 -42 19 -79 19
-82 0 -3 -23 -6 -51 -6 -37 0 -50 4 -46 13 2 6 15 57 28 112 17 71 25 91 27
70 2 -16 12 -64 23 -107z"/>
<path d="M4350 2380 l0 -360 125 0 124 0 3 118 3 117 63 -118 64 -117 261 2
262 3 9 43 9 43 101 -3 101 -3 9 -42 9 -43 139 0 c132 0 139 1 133 19 -3 10
-59 171 -124 358 l-118 338 -146 3 -145 3 -20 -53 c-11 -29 -64 -178 -118
-331 -54 -152 -102 -276 -107 -274 -4 1 -41 54 -82 116 l-73 114 41 21 c75 38
109 123 87 220 -15 66 -34 101 -75 131 -61 47 -110 55 -332 55 l-203 0 0 -360z
m344 159 c18 -14 26 -30 26 -51 0 -46 -25 -68 -77 -68 l-43 0 0 70 0 70 34 0
c19 0 45 -9 60 -21z m723 -226 c5 -22 2 -23 -46 -23 -28 0 -51 1 -51 3 0 2 6
26 14 53 8 27 20 76 27 109 l12 60 19 -90 c11 -49 22 -100 25 -112z"/>
<path d="M5820 2380 l0 -360 130 0 130 0 0 360 0 360 -130 0 -130 0 0 -360z"/>
<path d="M2271 1704 c-12 -15 -21 -34 -21 -43 0 -10 -5 -22 -12 -29 -9 -9 -9
-12 1 -12 9 0 12 -15 9 -55 -3 -50 -1 -55 17 -55 18 0 20 6 17 59 -3 55 -2 60
20 64 l23 4 -23 2 c-20 1 -23 6 -20 34 2 23 8 32 21 31 9 -1 17 4 17 12 0 23
-27 16 -49 -12z"/>
<path d="M2715 1720 c-11 -5 -14 -9 -7 -9 7 -1 12 -15 12 -34 0 -31 -2 -33
-28 -29 -41 6 -82 -30 -82 -74 0 -35 28 -74 53 -74 7 0 23 7 35 16 12 8 22 10
22 5 0 -6 12 -11 28 -10 15 0 21 3 15 6 -9 3 -13 35 -13 109 0 57 -3 104 -7
103 -5 0 -17 -4 -28 -9z m-14 -90 c14 -8 19 -21 19 -51 0 -32 -4 -41 -25 -51
-18 -8 -28 -8 -39 1 -23 19 -29 61 -11 87 17 27 27 29 56 14z"/>
<path d="M4325 1720 c-11 -5 -14 -9 -7 -9 7 -1 12 -15 12 -34 0 -31 -2 -33
-28 -29 -43 6 -82 -30 -82 -78 0 -29 6 -43 22 -54 28 -20 39 -20 64 -1 18 15
18 15 -7 9 -50 -11 -79 65 -39 101 17 15 24 16 46 6 22 -10 25 -17 24 -54 -4
-61 -2 -67 18 -67 15 0 17 11 14 110 -2 60 -6 110 -10 109 -4 0 -16 -4 -27 -9z"/>
<path d="M5605 1720 c-11 -5 -14 -9 -7 -9 7 -1 12 -15 12 -34 0 -31 -2 -33
-28 -29 -43 6 -82 -30 -82 -78 0 -29 6 -43 22 -54 28 -20 39 -20 64 -1 18 13
17 14 -10 12 -22 -2 -33 4 -44 24 -30 52 10 105 58 79 18 -9 21 -20 19 -53 -3
-61 -1 -67 19 -67 15 0 17 11 14 110 -2 60 -6 110 -10 109 -4 0 -16 -4 -27 -9z"/>
<path d="M6122 1718 c-20 -26 -50 -98 -40 -98 6 0 8 -23 6 -55 -3 -50 -1 -55
17 -55 18 0 20 7 20 57 0 49 3 58 18 57 9 -1 17 2 17 7 0 5 -9 9 -21 9 -17 0
-20 5 -17 33 2 24 8 33 26 35 12 2 22 8 22 13 0 13 -36 11 -48 -3z"/>
<path d="M2357 1714 c-8 -8 1 -24 14 -24 5 0 9 7 9 15 0 15 -12 20 -23 9z"/>
<path d="M4575 1711 c-7 -12 12 -24 25 -16 11 7 4 25 -10 25 -5 0 -11 -4 -15
-9z"/>
<path d="M5025 1710 c-4 -6 -3 -16 3 -22 6 -6 12 -6 17 2 4 6 3 16 -3 22 -6 6
-12 6 -17 -2z"/>
<path d="M5425 1710 c-4 -6 -3 -16 3 -22 6 -6 12 -6 17 2 4 6 3 16 -3 22 -6 6
-12 6 -17 -2z"/>
<path d="M2346 1641 c-18 -7 -18 -8 -3 -14 21 -8 25 -102 5 -110 -7 -3 3 -6
22 -6 23 0 30 2 22 8 -10 6 -13 26 -10 70 3 62 0 66 -36 52z"/>
<path d="M2435 1640 c-11 -5 -14 -9 -7 -9 10 -1 13 -16 10 -61 -3 -54 -1 -60
17 -60 17 0 20 7 20 51 0 55 17 78 49 66 12 -5 16 -20 16 -62 0 -46 3 -55 18
-55 15 0 17 8 14 57 -2 32 -9 64 -14 71 -13 15 -60 16 -76 0 -9 -9 -12 -9 -12
0 0 14 -7 14 -35 2z"/>
<path d="M2877 1626 c10 -13 27 -49 38 -79 16 -46 17 -60 7 -83 -9 -19 -18
-25 -32 -21 -13 3 -20 0 -20 -10 0 -9 8 -13 22 -11 18 2 32 24 68 106 25 57
52 107 60 112 11 7 6 10 -19 10 -26 0 -32 -3 -24 -11 8 -8 7 -23 -5 -55 -9
-24 -19 -44 -22 -44 -3 0 -13 21 -23 47 -14 37 -15 48 -5 55 8 5 -2 8 -25 8
l-38 0 18 -24z"/>
<path d="M3065 1625 c-32 -31 -32 -69 1 -102 20 -20 31 -24 57 -19 40 8 67 39
67 77 0 64 -78 92 -125 44z m77 -2 c22 -20 24 -76 2 -97 -18 -19 -20 -19 -44
-6 -24 13 -36 71 -21 99 14 25 38 27 63 4z"/>
<path d="M3225 1640 c-11 -5 -14 -9 -7 -9 8 -1 12 -19 12 -56 0 -43 4 -56 19
-65 26 -13 34 -13 57 5 18 13 17 14 -11 12 l-30 -2 -3 63 c-3 65 -4 66 -37 52z"/>
<path d="M3315 1640 c-18 -8 -18 -9 -2 -9 16 -1 18 -8 17 -48 -4 -69 -2 -73
23 -73 16 0 19 2 8 9 -11 7 -13 24 -8 70 5 64 2 68 -38 51z"/>
<path d="M3405 1640 c-17 -7 -17 -9 -2 -9 14 -1 17 -11 17 -55 0 -34 -5 -56
-12 -59 -7 -3 3 -6 22 -6 26 -1 31 2 22 11 -28 28 -2 108 32 95 11 -5 16 -1
16 13 0 23 -19 26 -39 8 -11 -10 -14 -10 -18 0 -5 14 -10 14 -38 2z"/>
<path d="M3606 1641 c-18 -7 -18 -8 -3 -14 26 -10 25 -181 0 -196 -14 -8 -9
-10 25 -11 40 0 42 1 28 16 -9 8 -16 29 -16 45 0 26 3 29 20 24 23 -7 76 18
90 44 15 30 12 66 -8 84 -22 20 -63 22 -81 5 -11 -10 -14 -10 -18 0 -5 13 -10
14 -37 3z m112 -23 c7 -7 12 -26 12 -43 0 -36 -15 -55 -45 -55 -29 0 -45 19
-45 51 0 47 49 76 78 47z"/>
<path d="M3808 1639 c-10 -5 -18 -15 -18 -20 0 -6 10 -3 22 5 15 11 26 12 40
5 26 -14 23 -39 -5 -39 -50 0 -84 -49 -55 -78 17 -17 38 -15 60 5 11 9 18 11
18 5 0 -7 12 -12 28 -11 15 0 21 3 15 6 -8 3 -13 23 -13 49 0 25 -5 54 -10 65
-12 21 -53 25 -82 8z m62 -77 c0 -21 -18 -42 -37 -42 -20 0 -27 28 -13 45 18
21 50 19 50 -3z"/>
<path d="M3946 1641 c-18 -7 -18 -8 -3 -14 21 -8 25 -102 5 -110 -7 -3 3 -6
22 -6 26 -1 31 2 22 11 -30 30 -3 108 33 94 10 -4 15 1 15 14 0 23 -19 26 -39
8 -11 -10 -14 -10 -18 0 -5 13 -10 14 -37 3z"/>
<path d="M4088 1639 c-10 -5 -18 -15 -18 -20 0 -6 10 -3 22 5 15 11 26 12 40
5 26 -14 23 -39 -5 -39 -53 0 -86 -52 -51 -81 14 -11 21 -11 45 3 16 10 29 13
29 8 0 -6 10 -10 22 -10 17 0 19 3 10 12 -7 7 -12 33 -12 58 0 25 -5 51 -12
58 -15 15 -47 15 -70 1z m62 -79 c0 -28 -38 -46 -57 -27 -13 12 -12 16 2 31
23 23 55 21 55 -4z"/>
<path d="M4428 1639 c-10 -5 -18 -15 -18 -20 0 -6 10 -3 22 5 15 11 26 12 40
5 26 -14 23 -39 -5 -39 -50 0 -84 -49 -55 -78 17 -17 38 -15 60 5 11 9 18 11
18 5 0 -7 12 -12 28 -11 15 0 21 3 15 6 -8 3 -13 24 -13 52 0 69 -41 100 -92
70z m62 -78 c0 -24 -25 -45 -45 -37 -18 7 -20 42 -2 49 27 12 47 7 47 -12z"/>
<path d="M4565 1640 c-17 -7 -17 -9 -2 -9 14 -1 17 -11 17 -55 0 -34 -5 -56
-12 -59 -7 -3 2 -6 21 -6 29 -1 32 1 21 14 -8 10 -11 35 -8 70 5 57 1 61 -37
45z"/>
<path d="M4662 1638 c-7 -7 -12 -22 -12 -35 0 -18 8 -24 40 -33 28 -8 40 -16
40 -29 0 -34 -64 -36 -74 -2 -2 9 -4 5 -3 -9 2 -29 28 -37 70 -21 21 8 27 17
27 40 0 27 -5 31 -41 41 -29 8 -39 16 -37 28 5 24 39 28 55 6 12 -17 13 -16
13 4 0 18 -6 22 -33 22 -18 0 -38 -5 -45 -12z"/>
<path d="M4800 1632 c-32 -26 -32 -88 0 -114 17 -14 33 -18 54 -14 45 9 57 27
14 20 -29 -5 -38 -2 -52 17 -24 35 -21 39 34 39 46 0 50 2 50 23 0 13 -5 28
-12 35 -18 18 -63 15 -88 -6z m70 -11 c15 -29 13 -31 -30 -31 -22 0 -40 3 -40
6 0 18 24 44 40 44 11 0 24 -9 30 -19z"/>
<path d="M5015 1640 c-11 -5 -14 -9 -7 -9 10 -1 13 -16 10 -61 l-3 -60 30 1
c17 0 24 3 18 6 -9 3 -13 27 -13 69 0 66 -1 68 -35 54z"/>
<path d="M5095 1640 c-18 -8 -18 -9 -2 -9 17 -1 18 -8 15 -61 -3 -54 -1 -60
17 -60 18 0 20 7 20 57 0 53 2 58 24 61 31 5 41 -12 41 -70 0 -39 3 -48 18
-48 14 0 16 8 14 52 -2 29 -11 61 -20 71 -18 20 -53 22 -70 5 -9 -9 -12 -9
-12 0 0 14 -16 14 -45 2z"/>
<path d="M5286 1635 c-19 -19 -19 -21 -6 -46 6 -10 19 -19 28 -19 10 0 27 -6
37 -14 16 -12 17 -16 6 -30 -18 -21 -37 -20 -61 4 -20 20 -20 20 -20 0 0 -40
91 -35 107 6 9 24 -10 48 -43 54 -20 4 -29 11 -29 25 0 26 28 31 50 9 16 -17
17 -17 13 2 -4 25 -59 31 -82 9z"/>
<path d="M5415 1640 c-11 -5 -14 -9 -7 -9 10 -1 13 -16 10 -61 l-3 -60 30 1
c17 0 24 3 18 6 -9 3 -13 27 -13 69 0 66 -1 68 -35 54z"/>
<path d="M5700 1630 c-21 -21 -26 -69 -10 -100 11 -21 51 -33 85 -24 35 9 31
21 -5 16 -34 -5 -60 12 -60 39 0 16 8 19 50 19 42 0 50 3 50 18 0 47 -73 69
-110 32z m68 -2 c23 -23 13 -38 -23 -38 -22 0 -35 5 -35 13 0 16 20 37 35 37
6 0 16 -5 23 -12z"/>
<path d="M5930 1630 c-43 -43 -13 -130 44 -130 13 0 35 9 50 21 35 27 37 90 4
113 -31 22 -74 20 -98 -4z m74 -6 c20 -20 21 -88 1 -104 -40 -33 -91 49 -60
97 18 27 37 29 59 7z"/>
<path d="M6258 1638 c5 -7 22 -42 36 -77 22 -55 24 -67 13 -90 -7 -14 -21 -26
-31 -26 -11 0 -21 -6 -24 -13 -5 -16 32 -16 46 1 6 7 27 51 47 97 20 47 43 93
52 102 15 17 14 18 -18 18 -24 0 -30 -3 -20 -9 12 -8 12 -16 -3 -55 -10 -25
-21 -44 -25 -42 -4 3 -14 24 -21 46 -12 36 -12 43 1 51 10 6 2 9 -25 9 -30 0
-36 -3 -28 -12z"/>
<path d="M6450 1630 c-43 -43 -13 -130 44 -130 13 0 35 9 50 21 35 27 37 90 4
113 -31 22 -74 20 -98 -4z m74 -3 c23 -17 19 -95 -6 -111 -40 -25 -81 69 -48
109 15 18 31 19 54 2z"/>
<path d="M6605 1640 c-11 -5 -14 -9 -7 -9 8 -1 12 -18 12 -49 0 -35 5 -54 18
-65 21 -19 48 -22 57 -7 3 5 18 7 33 4 l27 -6 -3 71 c-2 39 -7 71 -10 70 -16
-1 -46 -18 -34 -18 8 -1 12 -17 12 -46 0 -35 -5 -47 -21 -55 -33 -18 -49 4
-49 66 0 56 -2 58 -35 44z"/>
</g>
</svg>
